Coordinates
version=1
nRows=31
nColumns=33
inDegrees=yes

Units are S.I. units (second, meters, Newtons, ...)
Angles are in degrees.

endheader
time	ground_thorax_rot_x	ground_thorax_rot_y	ground_thorax_rot_z	ground_thorax_tx	ground_thorax_ty	ground_thorax_tz	clav_prot_r	clav_elev_r	scapula_abduction_r	scapula_elevation_r	scapula_upward_rot_r	scapula_winging_r	shoulder_elv_r	plane_of_elev_r	axial_rot_r	elbow_flexion_r	pro_sup_r	wrist_flex_r	wrist_dev_r	clav_prot_l	clav_elev_l	scapula_abduction_l	scapula_elevation_l	scapula_upward_rot_l	scapula_winging_l	shoulder_elv_l	plane_of_elev_l	axial_rot_l	elbow_flexion_l	pro_sup_l	wrist_flex_l	wrist_dev_l	
6.6300	39.297567	11.205537	14.364395	-210.826353	829.640353	2.854593	14.038988	36.285679	38.070872	45.000000	-44.999933	1355.468009	-2984.702746	142.677363	180.000000	2173.385694	51.404521	22.763700	7.697969	-1.499210	-45.000000	-42.197477	45.000000	13.462124	-2768.894843	-1713.213380	13.823843	180.000000	1085.780599	212.209796	10.990623	-18.837302	
6.6400	39.310610	11.383532	14.503006	-208.834085	828.479089	2.817683	14.169759	36.335649	38.221452	45.000000	-44.999879	1355.489999	-2984.836110	142.591650	180.000000	2173.285620	50.703681	22.709621	7.933208	-1.528725	-45.000000	-42.326890	45.000000	13.646514	-2768.804571	-1713.394360	13.836894	180.000000	1085.803253	212.299060	11.023394	-18.739356	
6.6500	39.325952	11.579351	14.646379	-206.769549	827.260681	2.781055	14.271522	36.369373	38.359273	45.000000	-44.999784	1355.535062	-2984.965752	142.523915	180.000000	2173.184755	50.004012	22.652563	8.174853	-1.550270	-45.000000	-42.465682	45.000000	13.811165	-2768.717455	-1713.580315	13.842408	180.000000	1085.823290	212.387439	11.050954	-18.633450	
6.6600	39.339255	11.793465	14.795236	-204.633861	825.983258	2.745787	14.342929	36.387026	38.484457	45.000000	-44.999613	1355.608768	-2985.093093	142.481816	180.000000	2173.085051	49.320509	22.593824	8.419844	-1.567733	-45.000000	-42.615719	45.000000	13.966059	-2768.632324	-1713.768120	13.840070	180.000000	1085.839501	212.472938	11.072314	-18.518449	
6.6700	39.358370	12.009206	14.941669	-202.427646	824.645543	2.713101	14.426948	36.408687	38.614913	45.000000	-44.999307	1355.693010	-2985.226879	142.448000	180.000000	2172.982042	48.659846	22.531911	8.665822	-1.594976	-45.000000	-42.769991	45.000000	14.128790	-2768.539824	-1713.961178	13.835458	180.000000	1085.862173	212.557362	11.090636	-18.397637	
6.6800	39.382103	12.224103	15.083872	-200.150762	823.247127	2.684291	14.540807	36.443185	38.755493	45.000000	-44.998757	1355.789776	-2985.367690	142.428033	180.000000	2172.875581	48.024542	22.466876	8.911669	-1.644690	-45.000000	-42.931141	45.000000	14.331669	-2768.433141	-1714.155501	13.827190	180.000000	1085.896554	212.644497	11.105408	-18.270285	
6.6900	39.407611	12.440831	15.223603	-197.802024	821.788546	2.660619	14.663462	36.484067	38.897049	45.000000	-44.997776	1355.896360	-2985.516995	142.410983	180.000000	2172.763604	47.423741	22.397813	9.156481	-1.701829	-45.000000	-43.101189	45.000000	14.561183	-2768.314327	-1714.352392	13.817164	180.000000	1085.939040	212.739531	11.116039	-18.138065	
6.7000	39.433356	12.659669	15.360941	-195.379720	820.271463	2.643216	14.798972	36.532440	39.037861	45.000000	-44.996009	1356.011579	-2985.674090	142.394677	180.000000	2172.646575	46.864200	22.324776	9.399542	-1.767236	-45.000000	-43.278084	45.000000	14.814207	-2768.184931	-1714.554808	13.805506	180.000000	1085.988845	212.848661	11.121870	-18.002810	
6.7100	39.459477	12.883047	15.496494	-192.881635	818.698415	2.632949	14.922541	36.578043	39.170522	45.000000	-44.992871	1356.133742	-2985.838377	142.371124	180.000000	2172.524143	46.358281	22.247567	9.640034	-1.824087	-45.000000	-43.463605	45.000000	15.065947	-2768.050957	-1714.765349	13.794284	180.000000	1086.041531	212.978428	11.122020	-17.866227	
6.7200	39.490451	13.106985	15.626511	-190.306337	817.073030	2.630348	15.055945	36.628624	39.307340	44.999999	-44.987176	1356.265113	-2986.009797	142.353840	180.000000	2172.397684	45.908414	22.167861	9.878192	-1.889694	-45.000000	-43.657460	45.000000	15.336844	-2767.907523	-1714.981864	13.779579	180.000000	1086.100114	213.134973	11.115058	-17.728569	
6.7300	39.527404	13.330607	15.746969	-187.653315	815.399647	2.635564	15.195981	36.681935	39.447855	44.999999	-44.977177	1356.405304	-2986.188544	142.342322	180.000000	2172.266111	45.519524	22.086250	10.114542	-1.964290	-45.000000	-43.860928	45.000000	15.637689	-2767.753467	-1715.203884	13.762692	180.000000	1086.165036	213.325851	11.099740	-17.589718	
6.7400	39.571265	13.553549	15.855036	-184.924017	813.683421	2.648449	15.316308	36.729661	39.585770	44.999998	-44.958704	1356.554540	-2986.369201	142.335447	180.000000	2172.131565	45.192001	22.005724	10.352799	-2.041928	-45.000000	-44.071260	45.000000	15.956823	-2767.592533	-1715.436464	13.742257	180.000000	1086.229218	213.552958	11.073207	-17.449041	
6.7500	39.623694	13.772063	15.951779	-182.121280	811.929529	2.668715	15.460156	36.788704	39.729614	44.999996	-44.927183	1356.713838	-2986.558870	142.341407	180.000000	2171.991160	44.922914	21.924084	10.589093	-2.141809	-45.000000	-44.283570	45.000000	16.316637	-2767.420498	-1715.674358	13.717809	180.000000	1086.302864	213.821500	11.037657	-17.307274	
6.7600	39.686268	13.980228	16.030637	-179.249776	810.143229	2.696144	15.594624	36.850197	39.870274	44.999994	-44.866338	1356.877885	-2986.758462	142.350316	180.000000	2171.839932	44.707598	21.843071	10.830108	-2.253325	-45.000000	-44.487961	45.000000	16.687608	-2767.250399	-1715.928238	13.688916	180.000000	1086.379459	214.128735	10.992169	-17.164039	
6.7700	39.759977	14.170532	16.095065	-176.314874	808.328985	2.730819	15.775022	36.932043	40.019112	44.999989	-44.769575	1357.051368	-2986.975391	142.373942	180.000000	2171.675632	44.539115	21.760576	11.072464	-2.402097	-45.000000	-44.668637	45.000000	17.095801	-2767.077676	-1716.189557	13.654988	180.000000	1086.472251	214.478187	10.938186	-17.017874	
6.7800	39.839447	14.351974	16.152060	-173.322276	806.490467	2.773226	15.925489	37.008446	40.149602	44.999980	-44.633240	1357.228255	-2987.204435	142.391352	180.000000	2171.493190	44.415832	21.676920	11.322085	-2.550748	-45.000000	-44.811621	45.000000	17.455515	-2766.927960	-1716.475665	13.618224	180.000000	1086.561991	214.860560	10.873869	-16.869715	
6.7900	39.922669	14.524751	16.212312	-170.276822	804.630006	2.824217	16.090096	37.090974	40.278038	44.999963	-44.473359	1357.414017	-2987.448041	142.415983	180.000000	2171.292071	44.327734	21.591368	11.577233	-2.719338	-45.000000	-44.909248	45.000000	17.765139	-2766.801664	-1716.780455	13.576626	180.000000	1086.655369	215.270310	10.799293	-16.718135	
6.8000	40.003409	14.699525	16.280232	-167.182557	802.749183	2.884725	16.205578	37.153788	40.385643	44.999934	-44.304973	1357.600583	-2987.699935	142.427341	180.000000	2171.071382	44.270499	21.504210	11.840563	-2.867938	-45.000000	-44.967097	45.000000	17.963802	-2766.713282	-1717.114289	13.534666	180.000000	1086.736017	215.694484	10.714238	-16.564291	
6.8100	40.079513	14.878464	16.365187	-164.042508	800.849065	2.955377	16.326081	37.210828	40.489975	44.999882	-44.151965	1357.798194	-2987.953782	142.444611	180.000000	2170.836448	44.235258	21.415774	12.106979	-3.020172	-45.000000	-44.992426	45.000000	18.097349	-2766.645785	-1717.458690	13.490853	180.000000	1086.818272	216.130563	10.618193	-16.404245	
6.8200	40.144581	15.072473	16.473108	-160.859346	798.930980	3.036058	16.405656	37.247206	40.575654	44.999789	-44.024967	1358.001812	-2988.204853	142.454791	180.000000	2170.588413	44.223398	21.325844	12.373329	-3.144003	-45.000000	-45.000000	45.000000	18.137038	-2766.601665	-1717.815316	13.448202	180.000000	1086.893017	216.571566	10.512006	-16.239618	
6.8300	40.200147	15.273914	16.602885	-157.636017	796.997002	3.125656	16.481466	37.275296	40.662497	44.999622	-43.928661	1358.216231	-2988.454290	142.472406	180.000000	2170.328179	44.236124	21.235988	12.635579	-3.259542	-45.000000	-45.000000	45.000000	18.124247	-2766.567466	-1718.171744	13.402998	180.000000	1086.973719	217.018139	10.395435	-16.067293	
6.8400	40.248192	15.473743	16.745500	-154.376700	795.050362	3.222057	16.578554	37.308193	40.755242	44.999323	-43.846743	1358.439117	-2988.707215	142.502514	180.000000	2170.057950	44.276687	21.145994	12.886001	-3.378321	-45.000000	-45.000000	45.000000	18.101487	-2766.530902	-1718.520302	13.354441	180.000000	1087.064967	217.472742	10.270983	-15.888854	
6.8500	40.294317	15.659619	16.890669	-151.087075	793.095680	3.322416	16.724960	37.359036	40.870053	44.998788	-43.768503	1358.669660	-2988.966031	142.557237	180.000000	2169.781273	44.347677	21.056798	13.118057	-3.524418	-45.000000	-45.000000	45.000000	18.126426	-2766.477534	-1718.851110	13.297378	180.000000	1087.175286	217.942134	10.138638	-15.703109	
6.8600	40.345411	15.815752	17.021994	-147.774413	791.138767	3.423617	16.970320	37.454077	41.020904	44.997828	-43.662249	1358.908683	-2989.238999	142.655778	180.000000	2169.498673	44.452317	20.966552	13.321632	-3.733567	-45.000000	-45.000000	45.000000	18.281540	-2766.388821	-1719.148594	13.225811	180.000000	1087.316231	218.438701	10.000503	-15.510386	
6.8700	40.396326	15.950582	17.140025	-144.447047	789.186793	3.522609	17.220382	37.556012	41.184055	44.996111	-43.545844	1359.143692	-2989.515046	142.762892	180.000000	2169.211963	44.594557	20.877375	13.502050	-3.963569	-45.000000	-45.000000	45.000000	18.488707	-2766.288643	-1719.435045	13.142683	180.000000	1087.467566	218.958764	9.852345	-15.311653	
6.8800	40.445782	16.054576	17.240593	-141.114291	787.247852	3.616629	17.529688	37.684325	41.366337	44.993029	-43.402794	1359.384081	-2989.796525	142.894914	180.000000	2168.922321	44.775856	20.787400	13.652150	-4.233653	-45.000000	-45.000000	45.000000	18.779767	-2766.169955	-1719.698782	13.049452	180.000000	1087.634496	219.505541	9.696831	-15.108942	
6.8900	40.477362	16.156688	17.345690	-137.785716	785.331241	3.703042	17.775604	37.785644	41.527190	44.987524	-43.282410	1359.618900	-2990.065105	143.002088	180.000000	2168.632302	44.997614	20.698868	13.781427	-4.472864	-45.000000	-45.000000	45.000000	19.010095	-2766.071788	-1719.971408	12.956931	180.000000	1087.789327	220.062323	9.529431	-14.904824	
6.9000	40.499056	16.226774	17.434393	-134.471105	783.446910	3.779281	18.036511	37.887771	41.691015	44.977619	-43.141551	1359.862219	-2990.325154	143.119735	180.000000	2168.345956	45.266980	20.616104	13.888669	-4.726007	-45.000000	-45.000000	45.000000	19.263685	-2765.977646	-1720.231892	12.860338	180.000000	1087.945140	220.633410	9.349877	-14.695444	
6.9100	40.489887	16.312506	17.547686	-131.179706	781.606000	3.842716	18.169321	37.927340	41.809104	44.960001	-43.053439	1360.093963	-2990.555933	143.188224	180.000000	2168.071992	45.586050	20.540892	13.977818	-4.897741	-45.000000	-45.000000	45.000000	19.335505	-2765.937619	-1720.522975	12.770777	180.000000	1088.062201	221.194322	9.158205	-14.491829	
6.9200	40.455060	16.389067	17.670277	-127.920294	779.820239	3.891128	18.300483	37.950881	41.913880	44.928093	-42.974550	1360.323144	-2990.771173	143.251933	180.000000	2167.813130	45.962451	20.473293	14.035768	-5.035203	-45.000000	-45.000000	45.000000	19.299466	-2765.937934	-1720.823035	12.683838	180.000000	1088.151208	221.744367	8.965393	-14.302020	
6.9300	40.378768	16.482256	17.822710	-124.700579	778.102494	3.923249	18.344173	37.919984	41.983757	44.871913	-42.944813	1360.531415	-2990.963844	143.277777	180.000000	2167.574261	46.401322	20.416135	14.064337	-5.086067	-45.000000	-45.000000	45.000000	19.053917	-2766.006605	-1721.151657	12.608570	180.000000	1088.191709	222.269295	8.772415	-14.133214	
